<?xml version="1.0" standalone="no"?>
<!DOCTYPE svg PUBLIC "-//W3C//DTD SVG 20010904//EN"
 "http://www.w3.org/TR/2001/REC-SVG-20010904/DTD/svg10.dtd">
<svg version="1.0" xmlns="http://www.w3.org/2000/svg"
 width="474.000000pt" height="474.000000pt" viewBox="0 0 474.000000 474.000000"
 preserveAspectRatio="xMidYMid meet">
<metadata>
Created by potrace 1.11, written by Peter Selinger 2001-2013
</metadata>
<g transform="translate(0.000000,474.000000) scale(0.100000,-0.100000)"
fill="#000000" stroke="none">
<path d="M2334 4543 c3 -37 6 -73 6 -79 0 -6 28 -10 70 -11 80 0 78 -3 82 97
l3 55 -84 3 -83 3 6 -68z"/>
<path d="M2956 4428 c-14 -40 -23 -75 -19 -79 5 -3 34 -18 65 -32 l57 -26 36
59 c19 31 35 62 35 68 0 5 -17 18 -37 27 -21 10 -54 26 -74 36 l-36 18 -27
-71z"/>
<path d="M1771 4464 c-92 -41 -91 -32 -13 -162 6 -10 23 -6 75 18 l66 31 -21
52 c-11 29 -23 60 -25 70 -7 22 -17 21 -82 -9z"/>
<path d="M2480 4221 c-16 -30 -12 -60 10 -73 15 -10 20 -24 20 -58 0 -42 -4
-49 -66 -111 l-67 -67 0 -114 0 -114 116 -116 117 -116 0 -193 0 -194 -122
-122 -123 -123 -1 -162 c-1 -90 -2 -165 -3 -168 -1 -3 -59 54 -131 125 l-130
130 0 95 0 95 145 145 145 145 0 53 c0 34 5 59 15 68 24 24 19 63 -10 76 -19
8 -28 8 -40 -2 -19 -16 -19 -54 0 -70 10 -8 15 -30 15 -65 l0 -53 -132 -131
c-72 -72 -133 -129 -136 -127 -2 3 -4 62 -4 132 l1 127 80 81 81 81 -1 118
c-1 107 1 120 20 141 23 25 26 47 11 77 -12 22 -68 27 -88 7 -19 -19 -14 -63
8 -83 18 -16 20 -31 20 -134 l0 -116 -80 -80 -80 -80 0 -255 0 -255 148 -148
147 -147 0 -537 c0 -440 2 -539 13 -550 10 -10 18 -11 27 -3 10 9 13 103 13
457 l1 447 200 200 200 201 0 202 c0 191 1 204 20 225 26 27 27 60 3 81 -39
36 -92 10 -92 -43 0 -19 7 -33 20 -40 19 -10 20 -21 20 -213 l0 -202 -185
-185 -185 -185 -1 40 c0 22 0 134 -1 248 l0 208 49 52 c27 29 83 85 123 125
l74 72 2 136 1 136 161 161 162 162 0 160 c0 148 2 162 20 178 38 32 19 97
-30 97 -56 0 -79 -54 -40 -95 19 -20 20 -36 21 -175 l1 -153 -143 -143 c-78
-79 -145 -141 -148 -139 -3 2 -6 111 -5 243 l0 240 59 57 58 57 -1 60 c0 46 4
64 19 79 25 25 24 45 -5 64 -29 19 -54 10 -63 -23 -4 -18 -1 -30 13 -41 16
-13 20 -28 19 -73 -1 -54 -3 -58 -57 -111 -30 -30 -64 -58 -76 -61 -21 -7 -22
-13 -24 -183 l-3 -175 -97 98 c-54 54 -99 105 -99 113 -1 9 -2 54 -3 101 l-1
85 67 70 c64 66 68 73 68 116 0 33 6 51 20 64 22 20 25 46 10 76 -15 26 -75
26 -90 0z m73 -25 c7 -19 -18 -40 -38 -32 -8 3 -15 15 -15 26 0 14 7 20 24 20
13 0 26 -6 29 -14z m243 -63 c-3 -8 -6 -17 -6 -19 0 -2 -7 -4 -15 -4 -21 0
-31 30 -15 40 19 12 42 0 36 -17z m204 -119 c0 -17 -6 -24 -20 -24 -25 0 -36
25 -20 45 16 20 40 7 40 -21z m-732 -318 c-2 -13 -10 -21 -23 -21 -23 0 -33
34 -14 45 20 13 40 -1 37 -24z m127 -312 c0 -10 -8 -20 -17 -22 -18 -3 -26 27
-11 42 12 11 28 0 28 -20z m431 -249 c8 -19 -13 -45 -31 -39 -14 6 -26 39 -17
48 11 12 43 6 48 -9z"/>
<path d="M2070 4192 c-28 -23 -30 -68 -2 -87 14 -11 20 -26 20 -56 1 -39 -4
-47 -64 -106 l-64 -63 0 -138 0 -137 -144 -144 -143 -143 0 128 0 127 36 40
c20 23 52 55 71 73 l34 32 1 116 c1 106 3 117 23 136 12 12 22 30 22 40 0 25
-34 60 -58 60 -50 0 -74 -68 -35 -100 17 -14 20 -29 20 -125 l0 -110 -68 -67
c-37 -38 -70 -68 -73 -68 -9 0 -91 91 -97 109 -4 9 2 25 14 38 17 19 19 27 9
48 -19 42 -82 28 -82 -18 0 -11 7 -25 16 -32 10 -6 18 -24 20 -38 1 -15 21
-44 48 -70 l46 -44 0 -309 0 -309 -114 114 -113 114 0 104 c-1 56 3 103 8 103
5 0 16 11 24 24 11 17 13 30 6 48 -17 46 -91 45 -106 -2 -6 -20 9 -59 29 -72
6 -4 11 -50 11 -113 l1 -106 127 -127 c122 -122 127 -129 127 -169 0 -41 4
-45 258 -299 l257 -258 1 -259 c1 -142 0 -257 -2 -255 -2 2 -85 84 -184 182
l-180 179 0 142 c0 129 2 144 20 160 22 20 27 64 8 83 -16 16 -66 15 -84 -2
-20 -21 -17 -63 5 -78 14 -10 21 -28 22 -61 2 -26 0 -49 -2 -52 -3 -2 -75 67
-160 156 l-154 160 0 72 c0 59 4 75 19 88 37 31 -2 91 -48 73 -26 -10 -32 -55
-10 -73 17 -14 20 -28 18 -90 -2 -86 -19 -61 200 -286 75 -76 136 -146 137
-155 1 -8 0 -45 0 -82 l-1 -67 198 -198 199 -199 0 -208 c1 -213 5 -232 40
-219 11 4 13 97 13 506 l0 502 -240 240 -239 240 109 110 110 110 0 70 c0 59
3 72 20 83 42 26 14 102 -38 102 -23 0 -52 -34 -52 -62 0 -9 9 -26 20 -36 15
-14 20 -33 21 -81 l2 -63 -104 -104 c-57 -57 -108 -103 -114 -101 -6 2 -10 80
-11 208 l-1 204 158 160 159 161 0 135 0 136 64 63 c60 60 63 66 61 107 -2 34
3 49 22 69 18 20 23 33 18 53 -8 31 -13 37 -41 45 -13 4 -30 0 -44 -12z m56
-34 c7 -22 -2 -38 -21 -38 -20 0 -37 34 -24 47 16 16 38 11 45 -9z m-299 -134
c3 -8 -2 -23 -11 -32 -16 -16 -18 -16 -31 2 -11 14 -12 23 -4 33 15 18 38 16
46 -3z m-270 -240 c8 -22 -18 -37 -36 -20 -7 8 -10 19 -7 25 10 16 36 13 43
-5z m-157 -310 c11 -12 10 -18 -3 -32 -16 -15 -18 -15 -33 0 -19 18 -12 48 9
48 8 0 20 -7 27 -16z m539 -208 c9 -11 8 -18 -5 -31 -15 -15 -19 -15 -32 -1
-17 17 -10 46 11 46 8 0 20 -6 26 -14z m-510 -365 c17 -11 7 -41 -13 -41 -19
0 -29 17 -22 35 6 17 15 18 35 6z m355 -366 c6 -18 -20 -39 -39 -31 -18 7 -20
43 -2 49 17 6 34 -2 41 -18z"/>
<path d="M1251 4051 c-28 -34 -51 -66 -51 -70 0 -5 28 -27 62 -49 l62 -41 14
22 c8 12 29 37 46 55 l30 32 -56 56 -55 56 -52 -61z"/>
<path d="M3467 4059 l-55 -52 41 -53 c23 -29 47 -53 52 -53 8 -1 100 56 124
75 4 4 -74 107 -93 123 -10 8 -27 -2 -69 -40z"/>
<path d="M3193 3814 c-27 -27 -24 -59 8 -82 13 -9 18 -23 16 -52 -2 -35 -12
-50 -72 -110 l-69 -69 -1 -86 -2 -85 51 -52 51 -53 1 -202 c1 -111 -3 -200 -7
-197 -4 2 -38 36 -76 74 -65 67 -68 73 -69 120 -1 28 3 50 7 50 5 0 16 11 24
24 20 31 3 74 -33 83 -32 8 -54 -6 -67 -42 -8 -23 -6 -30 16 -49 22 -19 25
-30 24 -75 l-2 -53 91 -91 c139 -138 153 -105 -191 -448 l-283 -283 2 -390 3
-391 25 0 25 0 0 198 0 197 193 193 192 192 0 58 c0 44 5 62 20 77 25 25 25
55 0 80 -35 35 -90 10 -90 -41 0 -18 8 -34 20 -41 16 -10 20 -24 20 -66 l0
-54 -174 -174 c-96 -96 -176 -174 -178 -174 -2 0 -3 72 -2 160 l1 159 281 281
282 281 0 70 0 69 115 116 c63 64 115 124 116 133 1 9 1 38 1 65 1 37 6 54 20
65 27 23 31 58 8 81 -27 27 -65 25 -84 -2 -22 -31 -20 -51 7 -76 18 -17 22
-31 22 -76 l-1 -56 -99 -101 -100 -101 -3 178 -2 178 72 73 72 73 -1 65 c-1
58 2 69 23 91 25 25 26 51 2 82 -17 20 -65 14 -82 -10 -22 -30 -20 -45 7 -72
19 -19 23 -33 22 -85 l-1 -61 -70 -71 -71 -70 -49 51 c-49 51 -49 51 -51 123
l-1 72 73 75 c67 69 73 78 70 112 -2 28 3 44 21 63 29 32 31 60 4 82 -29 25
-50 24 -77 -3z m62 -24 c11 -35 -17 -54 -43 -28 -7 7 -8 17 -1 30 13 24 36 23
44 -2z m129 -216 c8 -21 -1 -34 -24 -34 -22 0 -34 15 -26 35 7 20 42 19 50 -1z
m90 -313 c10 -16 -5 -41 -24 -41 -23 0 -34 16 -26 35 6 16 42 20 50 6z m-441
-125 c3 -8 0 -21 -6 -30 -11 -15 -15 -15 -31 -3 -12 9 -17 20 -13 31 8 20 43
21 50 2z m15 -805 c21 -13 10 -46 -16 -49 -17 -3 -22 1 -22 21 0 35 13 45 38
28z"/>
<path d="M966 3478 c-8 -29 -17 -67 -21 -85 l-6 -31 58 -7 c32 -4 67 -8 77 -9
15 -1 22 10 32 54 20 84 20 84 -43 104 -32 10 -63 21 -70 23 -7 3 -18 -16 -27
-49z"/>
<path d="M3770 3508 c-36 -11 -66 -21 -67 -22 -7 -5 35 -141 43 -139 5 0 38 4
73 8 l64 7 -6 46 c-8 60 -26 122 -35 121 -4 0 -36 -10 -72 -21z"/>
<path d="M1079 2886 c-2 -3 -33 -7 -69 -11 -36 -4 -66 -8 -68 -10 -5 -4 29
-149 37 -158 6 -6 126 28 140 39 5 5 -20 127 -29 137 -3 4 -8 5 -11 3z"/>
<path d="M3723 2833 c-6 -32 -14 -65 -17 -73 -5 -12 9 -21 65 -39 83 -27 82
-27 99 59 6 30 13 62 16 71 5 17 -8 22 -107 34 l-45 6 -11 -58z"/>
<path d="M1261 2298 c-33 -22 -61 -44 -61 -48 0 -10 79 -112 94 -122 6 -4 35
16 66 48 34 34 51 57 44 62 -6 4 -27 28 -46 54 l-35 46 -62 -40z"/>
<path d="M3468 2288 c-18 -24 -36 -44 -40 -46 -18 -8 -5 -31 42 -75 27 -26 53
-47 57 -47 10 1 107 129 102 134 -17 13 -117 76 -122 76 -3 0 -20 -19 -39 -42z"/>
<path d="M1985 1214 c-24 -18 -27 -52 -5 -74 18 -18 39 -19 414 -19 395 0 396
0 411 22 19 27 19 38 1 63 -14 18 -30 19 -410 19 -286 1 -399 -3 -411 -11z"/>
<path d="M1991 1016 c-25 -11 -32 -38 -17 -68 l12 -23 398 -3 c361 -2 401 -1
418 14 21 20 23 43 5 68 -13 18 -38 19 -405 20 -215 0 -400 -3 -411 -8z"/>
<path d="M1976 801 c-13 -14 -14 -24 -7 -44 5 -14 15 -28 22 -33 7 -4 190 -7
407 -7 372 0 396 1 409 18 18 26 16 49 -5 68 -17 15 -60 17 -414 17 -372 0
-396 -1 -412 -19z"/>
<path d="M2217 602 c-21 -23 -21 -42 -3 -67 12 -17 29 -19 167 -21 168 -1 199
6 199 50 0 49 -23 56 -192 56 -137 0 -157 -2 -171 -18z"/>
<path d="M2109 376 c-2 -2 -62 -6 -133 -10 -300 -16 -536 -65 -536 -111 0 -32
137 -73 300 -90 36 -4 73 -9 82 -11 137 -25 1039 -25 1176 1 9 1 49 6 87 9
141 14 305 59 305 83 0 18 -17 33 -53 48 -46 19 -232 51 -347 60 -47 4 -96 9
-110 12 -30 6 -765 15 -771 9z"/>
</g>
</svg>
